<svg xmlns="http://www.w3.org/2000/svg" viewBox="0 0 1024 1024">
  <defs>
    <linearGradient id="bg" x1="256" y1="128" x2="768" y2="896" gradientUnits="userSpaceOnUse">
      <stop offset="0" stop-color="#2b2b2b"/>
      <stop offset="1" stop-color="#171717"/>
    </linearGradient>
    <filter id="softShadow" x="-20%" y="-20%" width="140%" height="140%">
      <feDropShadow dx="0" dy="24" stdDeviation="32" flood-color="#000000" flood-opacity="0.22"/>
    </filter>
  </defs>
  <rect width="1024" height="1024" rx="228" fill="url(#bg)"/>
  <g filter="url(#softShadow)">
    <path
      d="M266 341c0-63 51-114 114-114h264c63 0 114 51 114 114v154c0 63-51 114-114 114H508l-139 117c-23 19-58 3-58-27v-96c-28-14-45-43-45-76V341Z"
      fill="#f7f7f8"/>
    <path
      d="M343 344c0-22 18-40 40-40h258c22 0 40 18 40 40v142c0 22-18 40-40 40H473l-82 69c-13 11-34 2-34-16v-61c-9-7-14-18-14-32V344Z"
      fill="#1f1f1f"/>
    <circle cx="435" cy="416" r="25" fill="#e5e7eb"/>
    <circle cx="512" cy="416" r="25" fill="#10a37f"/>
    <circle cx="589" cy="416" r="25" fill="#e5e7eb"/>
    <path
      d="M511 304v-56M511 585v-58M375 416h-58M707 416h-58M415 320l-39-39M648 552l-39-39M609 320l39-39M376 552l39-39"
      stroke="#10a37f"
      stroke-width="22"
      stroke-linecap="round"
      opacity="0.78"/>
  </g>
</svg>
